<svg width="67" height="89" viewBox="0 0 67 89" fill="none" xmlns="http://www.w3.org/2000/svg">
<g clip-path="url(#clip0)">
<path d="M15.8166 80.4144H7.37611C6.55551 80.4144 5.96936 81.005 5.96936 81.8319C5.96936 82.6587 6.55551 83.2493 7.37611 83.2493H15.8166C16.6372 83.2493 17.2234 82.6587 17.2234 81.8319C17.2234 81.005 16.6372 80.4144 15.8166 80.4144Z" fill="#3E1F58"/>
<path d="M21.4436 80.4144H20.0368C19.2162 80.4144 18.6301 81.005 18.6301 81.8319C18.6301 82.6587 19.2162 83.2493 20.0368 83.2493H21.4436C22.2642 83.2493 22.8503 82.6587 22.8503 81.8319C22.8503 81.005 22.2642 80.4144 21.4436 80.4144Z" fill="#3E1F58"/>
<path d="M41.2553 0.801025H7.49334C3.62478 0.801025 0.459595 3.99029 0.459595 7.88827V81.7138C0.459595 85.6118 3.62478 88.801 7.49334 88.801H41.2553C45.1239 88.801 48.2891 85.6118 48.2891 81.7138V50.4118H45.4756V81.7138C45.4756 84.0762 43.5999 85.9661 41.2553 85.9661H7.49334C5.14876 85.9661 3.27309 84.0762 3.27309 81.7138V7.88827C3.27309 5.52586 5.14876 3.63592 7.49334 3.63592H11.9481L13.1203 9.54196C13.2376 10.2507 13.8237 10.7232 14.5271 10.7232H34.2216C34.925 10.7232 35.5111 10.2507 35.6283 9.54196L36.8006 3.63592H41.2553C43.5999 3.63592 45.4756 5.52586 45.4756 7.88827V25.8426H48.2891V7.88827C48.2891 3.99029 45.2411 0.801025 41.2553 0.801025ZM33.1665 7.88827H15.6994L14.8788 3.63592H33.9871L33.1665 7.88827Z" fill="#3E1F58"/>
<path d="M63.5289 25.3702H27.6568C26.0155 25.3702 24.6088 26.7876 24.6088 28.5594V59.389C24.6088 59.8615 24.8433 60.2158 25.1949 60.4521C25.3122 60.5702 25.5466 60.5702 25.6639 60.5702C25.8983 60.5702 26.1328 60.4521 26.3672 60.3339L32.6976 54.6641H63.2944C64.9356 54.6641 66.3424 53.2467 66.3424 51.4749V28.5594C66.4596 26.7876 65.1701 25.3702 63.5289 25.3702ZM50.9853 43.2064C50.9853 44.2695 50.7509 45.2145 50.1647 45.8051C49.6958 46.5138 48.758 46.8682 47.4685 47.1044V49.2306H45.71V47.2225C45.2411 47.2225 44.655 47.1044 44.1861 47.1044C43.7171 46.9863 43.131 46.9863 42.6621 46.8682V45.0964C43.2482 45.2145 43.8344 45.3326 44.3033 45.4507C44.7722 45.5688 45.3584 45.5688 45.8273 45.5688C46.9996 45.5688 47.8202 45.4507 48.1719 45.0964C48.6408 44.742 48.8752 44.2695 48.8752 43.5608V43.0883C48.8752 42.8521 48.8752 42.6158 48.758 42.3796C48.758 42.1433 48.6408 42.0252 48.4063 41.9071C48.2891 41.789 48.0546 41.6708 47.8202 41.5527C47.5857 41.4346 47.234 41.3165 46.7651 41.1984L45.2411 40.7259C44.655 40.4896 44.0688 40.3715 43.5999 40.1353C43.131 39.899 42.8965 39.6628 42.5449 39.3084C42.3104 38.9541 42.0759 38.5997 42.0759 38.1272C41.9587 37.6547 41.9587 37.1823 41.9587 36.4735V36.3554C41.9587 35.1742 42.1932 34.2292 42.7793 33.6386C43.3655 32.9299 44.3033 32.5755 45.5928 32.4574V30.4494H47.3512V32.4574C47.8202 32.4574 48.1718 32.5755 48.6408 32.5755C49.1097 32.5755 49.4614 32.6937 49.9303 32.8118V34.5836C49.4614 34.4655 48.9925 34.4655 48.4063 34.3474C48.0546 33.8749 47.5857 33.8749 46.9996 33.8749C45.9445 33.8749 45.2411 34.1111 44.7722 34.3474C44.3033 34.7017 44.1861 35.1742 44.1861 35.8829V36.3554C44.1861 36.5917 44.1861 36.946 44.3033 37.0641C44.3033 37.3004 44.4205 37.4185 44.5377 37.6547C44.655 37.7729 44.8894 38.0091 45.1239 38.1272C45.3583 38.2453 45.71 38.3635 46.0617 38.4816L47.5857 38.9541C48.2891 39.1903 48.8752 39.4266 49.3441 39.6628C49.8131 39.899 50.1647 40.1353 50.3992 40.4896C50.6337 40.844 50.8681 41.1984 50.9853 41.5527C51.1026 42.0252 51.1026 42.4977 51.1026 43.0883V43.2064H50.9853Z" fill="#3E1F58"/>
</g>
<defs>
<clipPath id="clip0">
<rect width="66" height="88" fill="white" transform="translate(0.459595 0.801025)"/>
</clipPath>
</defs>
</svg>
